<svg width="272" height="60" viewBox="0 0 272 60" fill="none" xmlns="http://www.w3.org/2000/svg">
<path d="M53.1728 44.3527C54.5128 42.4991 55.627 40.5405 56.446 38.4405C58.198 33.9381 59.2799 27.8624 55.3863 24.1209C53.0859 21.9136 50.3338 21.699 47.4428 21.7014C46.9539 21.7014 46.4625 21.7087 45.9662 21.7112L44.5617 21.7843L41.9634 21.9209C41.9634 21.4795 41.9659 21.0404 41.9734 20.599C42.0081 18.6868 42.0726 16.7526 41.9287 14.8428C41.8815 14.2282 41.8542 13.6063 41.7848 12.9941C41.7525 12.7014 41.7128 12.4087 41.6532 12.1209C41.6235 11.977 41.5887 11.8355 41.549 11.694C41.5143 11.5745 41.4076 11.3965 41.4076 11.277C41.0949 10.494 40.611 9.75502 40.0625 9.11355C39.9285 8.95501 39.7871 8.80135 39.6431 8.65257C39.1568 8.15257 38.6183 7.70622 38.0475 7.30378C36.0746 5.91353 33.7767 5.84768 31.4787 6.06231C25.5601 6.61353 19.9989 9.14769 15.8944 13.4038C11.6658 17.7868 9.19906 23.8356 9.07994 29.8697C9.05264 31.2332 9.22884 32.5941 9.46459 33.9478C10.0478 37.2942 11.2836 40.382 13.1845 43.204C14.5295 45.1966 16.0979 47.0113 18.036 48.4796C19.3214 49.4528 20.5871 50.4235 22.0636 51.1747C23.6146 51.9674 25.1978 52.6674 26.8431 53.1162C29.3868 53.8089 32.0098 54.1577 34.6899 53.9869C36.1491 53.8942 37.5909 53.743 39.0004 53.4113C41.4349 52.8381 43.7824 52.0455 45.9389 50.7211C47.2219 49.9308 48.4801 49.1064 49.5918 48.1235C50.8947 46.9796 52.1404 45.7771 53.1728 44.3527ZM47.6388 44.082C44.6808 46.8845 40.8691 48.7845 36.7025 49.5211C35.288 49.7698 33.8611 49.6967 32.4267 49.6991C30.6672 49.7015 29.0021 49.3576 27.3717 48.8406C26.1681 48.4601 25.0216 47.8918 23.8752 47.3284C21.4779 46.1454 19.5969 44.3942 17.902 42.4332C16.2145 40.4795 15.001 38.2381 14.3062 35.7649C14.0059 34.6966 13.6188 33.6381 13.5592 32.5039C13.5121 31.6258 13.4872 30.7502 13.4575 29.8746C13.254 24.0356 16.423 18.1185 21.0362 14.5355C23.6692 12.4916 26.8382 11.1331 30.1412 10.5818C31.5433 10.3477 33.6129 9.95013 34.9902 10.4136C36.5511 10.9404 37.4196 12.3745 37.6008 13.9209C37.7968 15.6185 37.6752 17.355 37.6752 19.0721C37.6728 22.499 37.5934 25.9283 37.6678 29.3551C37.71 31.1966 36.8787 33.4088 34.4988 33.9088C31.2827 34.582 29.017 31.8624 29.5878 29.2575C29.8235 28.1746 30.3992 27.16 31.3795 26.5697C31.7989 26.3161 32.2704 26.1648 32.7543 26.0941L33.7891 26.0795L34.68 26.0673L35.0026 26.0624C35.6751 26.0551 36.2161 25.5112 36.2037 24.8502L36.1764 22.9356C36.1664 22.2721 35.6155 21.7429 34.9405 21.7526L34.3425 21.76L33.1761 21.7746C32.6004 21.8282 32.0371 21.8819 31.4713 22.0234C31.2306 22.0819 30.9923 22.1526 30.7566 22.2356C30.4216 22.3502 30.094 22.4868 29.7764 22.6429C29.0344 23.0063 28.3519 23.4819 27.7415 24.0307C26.595 25.0673 25.8803 26.3868 25.4361 27.8697C24.8256 29.9039 25.0886 31.8527 26.0589 33.6698C27.9822 37.2722 31.1834 38.6942 35.02 38.1478C37.6331 37.7747 39.7201 36.3673 40.9311 33.9381C41.554 32.6868 42.023 31.3941 41.9833 29.9673C41.951 28.7356 41.9411 27.499 41.9585 26.2697L45.5444 26.0844H45.5518L46.2739 26.0478L46.3211 26.0429C46.6363 26.0161 46.9216 25.9868 47.1276 25.9844C47.2492 25.9819 47.3733 25.9819 47.5023 25.9819C49.6067 25.96 52.3762 25.9795 53.2422 28.2039C53.5872 29.0966 53.6418 30.0088 53.6368 30.9893C53.6269 33.0161 53.1256 35.1137 52.396 37.0039C51.3438 39.7381 49.6985 42.1283 47.6388 44.082Z" fill="#053225"/>
<path d="M96.8642 40.4357C93.5668 42.8668 89.7851 45.1299 82.6142 45.1299C73.7945 45.1299 66.4941 39.1562 66.4941 29.5598C66.4941 21.0271 73.0849 14.1577 82.7936 14.1577C90.1441 14.1577 93.884 17.4445 95.4868 19.3637L90.6783 24.1419C90.0105 23.2902 87.3391 20.8991 83.1526 20.8991C77.5845 20.8991 74.3788 24.6097 74.3788 29.4319C74.3788 34.9778 78.2106 38.3925 83.1526 38.3925C87.072 38.3925 89.2967 37.029 89.7893 36.5572V33.9102H84.4006V27.8085H96.8684V40.4357H96.8642Z" fill="#053225"/>
<path d="M114.366 28.872C114.053 28.8281 113.698 28.7881 113.164 28.7881C109.557 28.7881 108.355 31.3071 108.355 34.6738V44.5701H100.917V22.1746H108.171V25.1615C109.286 22.9863 111.469 21.6188 114.361 21.6188V28.872H114.366Z" fill="#053225"/>
<path d="M122.914 35.2297C123.094 37.2329 125.097 38.9403 127.856 38.9403C130.661 38.9403 132.31 37.193 132.756 36.5532L137.657 40.1798C136.989 41.5033 133.783 45.1299 127.727 45.1299C120.022 45.1299 115.301 40.0519 115.301 33.4424C115.301 26.8729 119.934 21.6269 126.792 21.6269C134.23 21.6269 138.283 26.1932 138.283 33.8263C138.283 34.2541 138.283 34.7219 138.237 35.2337H122.914V35.2297ZM123.135 30.7074H130.707C130.619 28.9161 129.238 27.3807 126.921 27.3807C124.471 27.3807 123.315 29.128 123.135 30.7074Z" fill="#053225"/>
<path d="M147.716 35.2297C147.895 37.2329 149.899 38.9403 152.658 38.9403C155.463 38.9403 157.112 37.193 157.558 36.5532L162.459 40.1798C161.791 41.5033 158.585 45.1299 152.529 45.1299C144.823 45.1299 140.103 40.0519 140.103 33.4424C140.103 26.8729 144.736 21.6269 151.594 21.6269C159.032 21.6269 163.085 26.1932 163.085 33.8263C163.085 34.2541 163.085 34.7219 163.039 35.2337H147.716V35.2297ZM147.941 30.7074H155.513C155.425 28.9161 154.044 27.3807 151.727 27.3807C149.277 27.3807 148.117 29.128 147.941 30.7074Z" fill="#053225"/>
<path d="M179.781 31.2192C179.781 29.1279 178.491 28.0204 176.709 28.0204C174.66 28.0204 173.504 29.4278 173.504 31.2192V44.5741H166.065V22.1786H173.324V24.4817C174.213 23.1582 176.263 21.6228 179.201 21.6228C186.506 21.6228 187.219 27.5965 187.219 32.1588V44.5741H179.781V31.2192V31.2192Z" fill="#053225"/>
<path d="M199.373 22.1746H203.339V27.9324H199.373V36.1653C199.373 38.1285 200.755 38.5964 202.27 38.5964C202.671 38.5964 203.026 38.5964 203.518 38.5524V44.6541C203.518 44.6541 202.537 44.91 200.667 44.91C195.145 44.91 191.94 42.4789 191.94 35.8214V27.9284H189.669V22.1706H191.94V17.4364H199.378V22.1746H199.373Z" fill="#053225"/>
<path d="M214.826 30.1955C216.876 30.1955 218.478 30.6634 219.326 31.0072V30.1955C219.326 28.8321 218.169 27.7645 215.761 27.7645C213.712 27.7645 211.708 28.3202 209.884 29.1719L207.125 24.3937C209.621 22.8144 212.781 21.6188 216.654 21.6188C224.714 21.6188 226.764 25.5853 226.764 30.7073V44.5741H220.127L219.726 43.3385C218.524 44.4901 216.834 45.1298 214.425 45.1298C209.838 45.1298 205.739 42.4869 205.739 37.6207C205.743 33.1384 209.304 30.1955 214.826 30.1955ZM216.341 39.6679C218.124 39.6679 219.459 38.8562 219.459 37.3648C219.459 35.8294 218.078 34.9777 216.295 34.9777C214.513 34.9777 213.177 35.9173 213.177 37.3648C213.182 38.8562 214.605 39.6679 216.341 39.6679Z" fill="#053225"/>
<path d="M240.788 38.5563L236.689 44.57H228.717L236.689 33.2223L228.942 22.1745H237.223L240.788 28.1882L244.353 22.1745H252.638L244.891 33.2223L252.863 44.57H244.891L240.788 38.5563Z" fill="#053225"/>
<path d="M254.596 16.9726C254.596 14.7134 256.378 13.0901 258.736 13.0901C261.095 13.0901 262.923 14.7094 262.923 16.9726C262.923 19.1917 261.099 20.8111 258.736 20.8111C256.374 20.8111 254.596 19.1877 254.596 16.9726ZM262.522 44.5741H255.084V22.1786H262.522V44.5741Z" fill="#053225"/>
</svg>
