<svg width="220" height="49" viewBox="0 0 220 49" fill="none" xmlns="http://www.w3.org/2000/svg">
<path d="M43.0074 36.2218C44.0912 34.7079 44.9924 33.1085 45.6548 31.3935C47.0719 27.7165 47.947 22.7547 44.7977 19.6991C42.9371 17.8965 40.7112 17.7212 38.3728 17.7232C37.9774 17.7232 37.58 17.7292 37.1786 17.7312L36.0425 17.7909L33.941 17.9025C33.941 17.5419 33.943 17.1834 33.949 16.8229C33.9771 15.2612 34.0293 13.6817 33.9129 12.122C33.8748 11.6201 33.8527 11.1121 33.7965 10.6122C33.7704 10.3732 33.7383 10.1341 33.6901 9.89909C33.666 9.78157 33.6379 9.66604 33.6058 9.55051C33.5777 9.45291 33.4914 9.30751 33.4914 9.2099C33.2385 8.57051 32.8471 7.96697 32.4035 7.44311C32.2951 7.31364 32.1807 7.18814 32.0643 7.06664C31.6709 6.6583 31.2353 6.29379 30.7737 5.96513C29.178 4.82976 27.3194 4.77598 25.4607 4.95126C20.6736 5.40143 16.1756 7.47099 12.8557 10.9468C9.43552 14.5262 7.4404 19.4661 7.34405 24.394C7.32198 25.5075 7.46449 26.6189 7.65517 27.7244C8.12685 30.4573 9.12642 32.979 10.6639 35.2836C11.7518 36.911 13.0203 38.3929 14.5879 39.592C15.6276 40.3868 16.6513 41.1796 17.8455 41.7931C19.1 42.4404 20.3806 43.0121 21.7113 43.3786C23.7687 43.9443 25.8903 44.2291 28.058 44.0897C29.2382 44.014 30.4044 43.8905 31.5444 43.6196C33.5135 43.1515 35.4122 42.5042 37.1565 41.4226C38.1942 40.7772 39.2118 40.104 40.111 39.3012C41.1648 38.367 42.1724 37.385 43.0074 36.2218ZM38.5314 36.0007C36.1388 38.2893 33.0558 39.841 29.6858 40.4426C28.5417 40.6457 27.3876 40.586 26.2275 40.588C24.8044 40.59 23.4576 40.3091 22.1389 39.8868C21.1654 39.5761 20.2381 39.112 19.3108 38.6519C17.3719 37.6858 15.8504 36.2556 14.4795 34.6542C13.1147 33.0587 12.1331 31.2281 11.5711 29.2084C11.3283 28.3359 11.0152 27.4715 10.967 26.5452C10.9289 25.8282 10.9088 25.1131 10.8847 24.398C10.7201 19.6294 13.2833 14.7971 17.0146 11.8711C19.1442 10.2019 21.7073 9.09238 24.3789 8.64222C25.5129 8.451 27.1869 8.12632 28.3009 8.50478C29.5634 8.93502 30.2659 10.1062 30.4124 11.3691C30.571 12.7554 30.4726 14.1737 30.4726 15.5759C30.4706 18.3745 30.4064 21.1751 30.4666 23.9737C30.5007 25.4776 29.8283 27.2842 27.9034 27.6926C25.3022 28.2423 23.4696 26.0214 23.9313 23.894C24.1219 23.0096 24.5876 22.181 25.3804 21.699C25.7196 21.4918 26.101 21.3683 26.4924 21.3106L27.3294 21.2986L28.05 21.2887L28.3109 21.2847C28.8548 21.2787 29.2924 20.8345 29.2824 20.2947L29.2603 18.7311C29.2523 18.1893 28.8067 17.7571 28.2607 17.765L27.777 17.771L26.8336 17.783C26.368 17.8268 25.9123 17.8706 25.4547 17.9861C25.26 18.0339 25.0673 18.0917 24.8766 18.1594C24.6057 18.253 24.3407 18.3646 24.0838 18.4921C23.4837 18.7889 22.9317 19.1773 22.4379 19.6254C21.5106 20.472 20.9326 21.5496 20.5733 22.7607C20.0795 24.4219 20.2923 26.0134 21.0771 27.4973C22.6326 30.4394 25.2219 31.6006 28.3249 31.1544C30.4385 30.8497 32.1265 29.7004 33.106 27.7165C33.6098 26.6946 33.9892 25.6389 33.9571 24.4737C33.931 23.4678 33.9229 22.4579 33.937 21.454L36.8373 21.3026H36.8434L37.4274 21.2727L37.4656 21.2687C37.7205 21.2468 37.9513 21.2229 38.1179 21.2209C38.2163 21.2189 38.3166 21.2189 38.421 21.2189C40.1231 21.201 42.3631 21.217 43.0636 23.0335C43.3426 23.7626 43.3867 24.5075 43.3827 25.3083C43.3747 26.9635 42.9692 28.6765 42.3791 30.2202C41.5281 32.4531 40.1973 34.4052 38.5314 36.0007Z" fill="white"/>
<path d="M81.5025 33.0229C78.8354 35.0082 75.7768 36.8565 69.9767 36.8565C62.8432 36.8565 56.9385 31.9779 56.9385 24.1409C56.9385 17.1725 62.2692 11.5625 70.1219 11.5625C76.0671 11.5625 79.092 14.2467 80.3884 15.8141L76.4992 19.7163C75.9591 19.0207 73.7984 17.068 70.4122 17.068C65.9086 17.068 63.3158 20.0983 63.3158 24.0364C63.3158 28.5656 66.415 31.3542 70.4122 31.3542C73.5823 31.3542 75.3818 30.2407 75.7801 29.8554V27.6937H71.4217V22.7107H81.5059V33.0229H81.5025Z" fill="white"/>
<path d="M95.6579 23.5787C95.4047 23.5428 95.1177 23.5102 94.6856 23.5102C91.7687 23.5102 90.7964 25.5674 90.7964 28.3169V36.3988H84.7803V18.1092H90.6478V20.5484C91.5492 18.772 93.3149 17.6553 95.6545 17.6553V23.5787H95.6579Z" fill="white"/>
<path d="M102.572 28.7711C102.717 30.4071 104.338 31.8014 106.569 31.8014C108.838 31.8014 110.171 30.3744 110.533 29.8519L114.496 32.8137C113.956 33.8945 111.363 36.8563 106.465 36.8563C100.232 36.8563 96.4141 32.7092 96.4141 27.3114C96.4141 21.9463 100.161 17.6621 105.708 17.6621C111.724 17.6621 115.003 21.3912 115.003 27.6249C115.003 27.9743 115.003 28.3564 114.965 28.7743H102.572V28.7711ZM102.751 25.0779H108.875C108.804 23.615 107.687 22.3611 105.813 22.3611C103.831 22.3611 102.896 23.788 102.751 25.0779Z" fill="white"/>
<path d="M122.632 28.7711C122.778 30.4071 124.398 31.8014 126.63 31.8014C128.898 31.8014 130.232 30.3744 130.593 29.8519L134.557 32.8137C134.016 33.8945 131.424 36.8563 126.525 36.8563C120.293 36.8563 116.475 32.7092 116.475 27.3114C116.475 21.9463 120.222 17.6621 125.769 17.6621C131.785 17.6621 135.063 21.3912 135.063 27.6249C135.063 27.9743 135.063 28.3564 135.026 28.7743H122.632V28.7711ZM122.815 25.0779H128.939C128.868 23.615 127.751 22.3611 125.877 22.3611C123.895 22.3611 122.957 23.788 122.815 25.0779Z" fill="white"/>
<path d="M148.567 25.4962C148.567 23.7884 147.524 22.8839 146.083 22.8839C144.425 22.8839 143.49 24.0333 143.49 25.4962V36.4027H137.474V18.1131H143.345V19.994C144.064 18.9131 145.721 17.6592 148.098 17.6592C154.006 17.6592 154.583 22.5377 154.583 26.2636V36.4027H148.567V25.4962Z" fill="white"/>
<path d="M164.415 18.1093H167.622V22.8115H164.415V29.535C164.415 31.1383 165.532 31.5204 166.758 31.5204C167.082 31.5204 167.369 31.5204 167.767 31.4844V36.4675C167.767 36.4675 166.974 36.6765 165.461 36.6765C160.995 36.6765 158.402 34.6911 158.402 29.2542V22.8082H156.565V18.106H158.402V14.2397H164.418V18.1093H164.415Z" fill="white"/>
<path d="M176.913 24.6596C178.571 24.6596 179.867 25.0417 180.552 25.3225V24.6596C180.552 23.5461 179.617 22.6742 177.669 22.6742C176.012 22.6742 174.391 23.1281 172.916 23.8237L170.684 19.9215C172.703 18.6316 175.259 17.6553 178.392 17.6553C184.911 17.6553 186.569 20.8946 186.569 25.0776V36.4021H181.201L180.877 35.393C179.904 36.3335 178.537 36.856 176.589 36.856C172.879 36.856 169.563 34.6975 169.563 30.7235C169.567 27.063 172.447 24.6596 176.913 24.6596ZM178.139 32.3954C179.58 32.3954 180.661 31.7325 180.661 30.5145C180.661 29.2606 179.543 28.5651 178.101 28.5651C176.66 28.5651 175.58 29.3324 175.58 30.5145C175.583 31.7325 176.734 32.3954 178.139 32.3954Z" fill="white"/>
<path d="M197.912 31.4883L194.597 36.3995H188.148L194.597 27.1322L188.331 18.1099H195.029L197.912 23.0211L200.795 18.1099H207.496L201.231 27.1322L207.679 36.3995H201.231L197.912 31.4883Z" fill="white"/>
<path d="M209.08 13.8612C209.08 12.0162 210.522 10.6904 212.429 10.6904C214.337 10.6904 215.815 12.0129 215.815 13.8612C215.815 15.6735 214.34 16.996 212.429 16.996C210.518 16.996 209.08 15.6702 209.08 13.8612ZM215.491 36.4024H209.475V18.1127H215.491V36.4024Z" fill="white"/>
</svg>
