<svg width="24" height="24" viewBox="0 0 24 24" fill="none" xmlns="http://www.w3.org/2000/svg">
<g clip-path="url(#clip0)">
<path d="M19.1311 6.16158C18.7002 5.7307 18.1185 5.47217 17.4722 5.47217H15.9425V1.46499C15.9425 1.0772 15.8133 0.710952 15.5763 0.452424C15.3393 0.172352 14.9946 0 14.6068 0H9.39317C9.00538 0 8.66068 0.172352 8.42369 0.452424C8.18671 0.710952 8.05744 1.0772 8.05744 1.46499V5.45063H6.52782C5.8815 5.45063 5.27827 5.70916 4.86893 6.14004C4.43806 6.57092 4.17953 7.1526 4.17953 7.79892V19.4973C4.17953 20.1436 4.43806 20.7469 4.86893 21.1562C5.19209 21.4794 5.62297 21.7163 6.11849 21.8025V22.298C6.11849 22.772 6.31238 23.2029 6.614 23.5045C6.91561 23.8061 7.34649 24 7.82046 24H7.88509C8.35906 24 8.78994 23.8061 9.09156 23.5045C9.39317 23.2029 9.58707 22.772 9.58707 22.298V21.8456H14.4129V22.298C14.4129 22.772 14.6068 23.2029 14.9084 23.5045C15.21 23.8061 15.6409 24 16.1149 24H16.1795C16.6319 24 17.0628 23.8276 17.3644 23.526L17.386 23.5045C17.6876 23.2029 17.8815 22.772 17.8815 22.298V21.8025C18.3555 21.7163 18.7863 21.4794 19.1311 21.1562C19.5619 20.7253 19.8205 20.1436 19.8205 19.4973V7.82047C19.8205 7.17415 19.5619 6.57092 19.1311 6.16158ZM8.89766 1.46499C8.89766 1.29264 8.96229 1.12029 9.07001 1.01257C9.15619 0.904847 9.26391 0.861759 9.39317 0.861759H14.6068C14.7361 0.861759 14.8438 0.926391 14.93 1.01257C15.0377 1.12029 15.1023 1.29264 15.1023 1.46499V5.45063H14.1113V2.84381C14.1113 2.56373 14.0467 2.30521 13.9174 2.11131C13.7666 1.85278 13.5296 1.70197 13.2495 1.70197H10.7504C10.4704 1.70197 10.2334 1.85278 10.0826 2.11131C9.95331 2.30521 9.88868 2.56373 9.88868 2.84381V5.47217H8.89766V1.46499ZM10.7504 2.84381C10.7504 2.71454 10.772 2.62837 10.8151 2.54219H13.1849C13.228 2.60682 13.2495 2.71454 13.2495 2.82226V5.45063H10.7504V2.84381ZM8.72531 22.3411C8.72531 22.5781 8.63913 22.7935 8.46678 22.9443C8.31597 23.0952 8.10053 23.2029 7.86355 23.2029H7.79892C7.56193 23.2029 7.34649 23.1167 7.19569 22.9443C7.04488 22.7935 6.93716 22.5781 6.93716 22.3411V21.8887H8.72531V22.3411ZM17.0628 22.3411C17.0628 22.5781 16.9767 22.7935 16.8043 22.9443L16.7828 22.9659C16.6319 23.1167 16.4165 23.2029 16.2011 23.2029H16.1364C15.8995 23.2029 15.684 23.1167 15.5332 22.9443C15.3824 22.7935 15.2747 22.5781 15.2747 22.3411V21.8887H17.0628V22.3411ZM19.0018 19.5189C19.0018 19.9282 18.8294 20.316 18.5494 20.5745C18.2693 20.8546 17.903 21.0269 17.4937 21.0269H14.8438H9.15619H6.50628C6.09694 21.0269 5.70915 20.8546 5.45062 20.5745C5.17055 20.2944 4.9982 19.9282 4.9982 19.5189V7.82047C4.9982 7.41113 5.17055 7.02334 5.45062 6.76481C5.73069 6.48474 6.09694 6.31239 6.50628 6.31239H8.46678H10.298H13.6589H15.4901H17.4506C17.903 6.31239 18.2693 6.48474 18.5494 6.76481C18.8294 7.04488 19.0018 7.41113 19.0018 7.82047V19.5189Z" fill="#000"/>
</g>
<defs>
<clipPath id="clip0">
<rect width="24" height="24" fill="white"/>
</clipPath>
</defs>
</svg>
