<svg width="120" height="120" viewBox="0 0 120 120" fill="none" xmlns="http://www.w3.org/2000/svg">
<path d="M38.4065 55.3086C35.451 54.4577 32.4954 54.026 29.6204 54.026C25.1809 54.026 21.4764 55.0405 18.6039 56.2829C21.3731 46.1449 28.0256 28.6519 41.2777 26.6819C42.505 26.4994 43.5107 25.612 43.8455 24.4174L46.7419 14.0578C46.9861 13.1818 46.8414 12.244 46.3416 11.4837C45.8419 10.7234 45.0388 10.2161 44.1388 10.0928C43.1608 9.95933 42.1638 9.89136 41.1757 9.89136C25.269 9.89136 9.51576 26.4944 2.86833 50.2673C-1.03378 64.2144 -2.17798 85.1828 7.4338 98.3808C12.8124 105.766 20.6594 109.71 30.7571 110.104C30.7986 110.105 30.8389 110.106 30.8805 110.106C43.3395 110.106 54.3875 101.715 57.7484 89.703C59.7561 82.5217 58.8485 74.9906 55.1906 68.4916C51.5717 62.0657 45.6116 57.3818 38.4065 55.3086Z" fill="#20FC8F"/>
<path d="M116.397 68.4929C112.779 62.0656 106.818 57.3818 99.6134 55.3086C96.6578 54.4577 93.7023 54.0259 90.8286 54.0259C86.389 54.0259 82.6832 55.0405 79.8108 56.2829C82.58 46.1449 89.2325 28.6519 102.486 26.6819C103.713 26.4994 104.718 25.612 105.054 24.4174L107.95 14.0578C108.194 13.1818 108.049 12.244 107.55 11.4837C107.051 10.7234 106.248 10.2161 105.347 10.0928C104.37 9.95933 103.373 9.89136 102.384 9.89136C86.4771 9.89136 70.7239 26.4944 64.0752 50.2673C60.1743 64.2143 59.0302 85.1827 68.6432 98.3833C74.0205 105.767 81.8688 109.712 91.9652 110.105C92.0068 110.106 92.047 110.107 92.0898 110.107C104.548 110.107 115.597 101.717 118.958 89.7042C120.963 82.523 120.054 74.9906 116.397 68.4929Z" fill="#20FC8F"/>
</svg>
