<svg width="28" height="28" viewBox="0 0 28 28" fill="none" xmlns="http://www.w3.org/2000/svg">
<g id="logo-facebook">
<path id="Path" d="M28 14.0844C27.9988 6.59121 22.1677 0.410398 14.7308 0.0194842C7.29393 -0.37143 0.854523 5.16439 0.0774068 12.6167C-0.69971 20.069 4.45749 26.8292 11.8131 28V18.1563H8.25894V14.0844H11.8131V10.981C11.8131 7.45065 13.9034 5.50057 17.1005 5.50057C18.1505 5.51522 19.198 5.60703 20.2346 5.77525V9.24226H18.469C17.8595 9.16081 17.2462 9.36269 16.8025 9.79088C16.3587 10.2191 16.1326 10.8271 16.1879 11.4432V14.0844H20.071L19.4498 18.1563H16.1879V28C22.9914 26.9171 28.0011 21.0153 28 14.0844Z" fill="#A8A8A8"/>
</g>
</svg>
