<svg width="28" height="22" viewBox="0 0 28 22" fill="none" xmlns="http://www.w3.org/2000/svg">
<g id="logo-twitter">
<path id="Path" d="M28 2.59658C26.9533 3.01538 25.9065 3.35043 24.6854 3.43419C25.9065 2.7641 26.7788 1.67521 27.215 0.418803C26.081 1.08889 24.8598 1.50769 23.5514 1.75897C22.5047 0.670086 21.0218 0 19.4517 0C16.3115 0 13.6947 2.42906 13.6947 5.52821C13.6947 5.94701 13.7819 6.36581 13.8692 6.78462C9.07165 6.53333 4.88474 4.35556 2.00623 1.00513C1.48287 1.84274 1.22118 2.7641 1.22118 3.76923C1.22118 5.69573 2.26791 7.37094 3.75078 8.37607C2.79128 8.37607 1.919 8.12479 1.13396 7.70598V7.78974C1.13396 10.4701 3.14019 12.6479 5.75701 13.1504C5.23364 13.2342 4.79751 13.3179 4.27414 13.3179C3.92523 13.3179 3.57632 13.3179 3.22741 13.2342C3.92523 15.412 6.10592 17.0034 8.54829 17.0872C6.62928 18.5949 4.09969 19.4325 1.39564 19.4325C0.959502 19.4325 0.436137 19.4325 0 19.3487C2.61682 20.8564 5.66978 21.7778 8.8972 21.7778C19.4517 21.7778 25.2087 13.4017 25.2087 6.11453C25.2087 5.86325 25.2087 5.61197 25.2087 5.44444C26.2555 4.60684 27.215 3.68547 28 2.59658Z" fill="#A8A8A8"/>
</g>
</svg>
