<svg width="28" height="29" viewBox="0 0 28 29" fill="none" xmlns="http://www.w3.org/2000/svg">
<g id="logo-instagram">
<path id="Shape" fill-rule="evenodd" clip-rule="evenodd" d="M8.22624 0.861826C9.7203 0.793698 10.1972 0.777832 13.9981 0.777832C17.7991 0.777832 18.276 0.793698 19.7719 0.85996C21.9518 0.820567 24.0611 1.63319 25.6511 3.12501C27.1426 4.71533 27.9551 6.82463 27.916 9.00462C27.9841 10.4988 28 10.9757 28 14.7769C28 18.5781 27.9841 19.0559 27.916 20.5492C27.9554 22.7292 27.1428 24.8386 25.6511 26.4288C24.0609 27.9204 21.9517 28.7329 19.7719 28.6938C18.2778 28.762 17.801 28.7778 14 28.7778C10.199 28.7778 9.72124 28.762 8.2281 28.6938C6.04821 28.7332 3.93894 27.9206 2.34889 26.4288C0.857424 24.8385 0.0448951 22.7292 0.0839888 20.5492C0.0158646 19.055 0 18.5781 0 14.7769C0 10.9757 0.0158645 10.4988 0.0821224 9.00648C0.0427317 6.82644 0.855302 4.71704 2.34702 3.12688C3.93723 1.63531 6.04639 0.82273 8.22624 0.861826ZM19.6531 3.37921C18.1768 3.31201 17.7298 3.29801 13.9969 3.29801C10.2641 3.29801 9.81707 3.31481 8.34074 3.38201C6.79198 3.32853 5.28266 3.87671 4.12916 4.91164C3.09498 6.06451 2.54689 7.57279 2.59964 9.12069C2.53244 10.5971 2.51845 11.0395 2.51845 14.7772C2.51845 18.515 2.53524 18.9574 2.60523 20.4338C2.55239 21.9817 3.1005 23.49 4.13476 24.6429C5.28755 25.6771 6.79574 26.2252 8.34354 26.1725C9.81987 26.2397 10.2622 26.2537 13.9997 26.2537C17.7372 26.2537 18.1796 26.2397 19.6559 26.1725C21.2037 26.2253 22.7119 25.6772 23.8647 24.6429C24.8988 23.49 25.4469 21.9817 25.3942 20.4338C25.4614 18.9574 25.4754 18.5103 25.4754 14.7772C25.4754 11.0442 25.4586 10.5971 25.3914 9.11789C25.4441 7.56999 24.896 6.06171 23.8619 4.90884C22.7091 3.87459 21.2009 3.32646 19.6531 3.37921Z" fill="#A8A8A8"/>
<path id="Shape_2" fill-rule="evenodd" clip-rule="evenodd" d="M6.81152 14.777C6.81152 10.8082 10.0287 7.59082 13.9972 7.59082C17.9658 7.59082 21.1829 10.8082 21.1829 14.777C21.1829 18.7458 17.9658 21.9632 13.9972 21.9632C10.0287 21.9632 6.81152 18.7458 6.81152 14.777ZM9.33312 14.7775C9.33312 17.3547 11.4222 19.4439 13.9992 19.4439C15.2367 19.4439 16.4235 18.9522 17.2986 18.0771C18.1736 17.202 18.6652 16.0151 18.6652 14.7775C18.6652 12.2004 16.5761 10.1112 13.9992 10.1112C11.4222 10.1112 9.33312 12.2004 9.33312 14.7775Z" fill="#A8A8A8"/>
<path id="Oval" d="M21.4708 8.98429C22.3985 8.98429 23.1506 8.23218 23.1506 7.3044C23.1506 6.37662 22.3985 5.62451 21.4708 5.62451C20.5431 5.62451 19.791 6.37662 19.791 7.3044C19.791 8.23218 20.5431 8.98429 21.4708 8.98429Z" fill="#A8A8A8"/>
</g>
</svg>
