<svg width="28" height="29" viewBox="0 0 28 29" fill="none" xmlns="http://www.w3.org/2000/svg">
<g id="Footer">
<g id="Social">
<g id="logo-linkedin">
<path id="Shape" fill-rule="evenodd" clip-rule="evenodd" d="M1.86667 0.777832H26.1333C27.1643 0.777832 28 1.61357 28 2.6445V26.9112C28 27.9421 27.1643 28.7778 26.1333 28.7778H1.86667C0.835735 28.7778 0 27.9421 0 26.9112V2.6445C0 1.61357 0.835735 0.777832 1.86667 0.777832ZM4.08149 24.6656H8.29362V11.2778H4.08149V24.6656ZM6.1883 9.43986C4.83618 9.43574 3.74303 8.33702 3.74577 6.9849C3.74852 5.63278 4.84613 4.53851 6.19825 4.53988C7.55037 4.54125 8.64576 5.63774 8.64577 6.98986C8.64602 7.64102 8.38695 8.26546 7.92582 8.7252C7.46468 9.18493 6.83945 9.4421 6.1883 9.43986ZM19.7865 24.6658H23.9127L23.9118 17.3158C23.9118 13.728 23.1222 10.928 18.9101 10.928C17.2907 10.872 15.7724 11.7132 14.9611 13.1158H14.8734V11.278H11.0131V24.7535H15.1357V18.1026C15.1357 16.3535 15.3998 14.6903 17.5931 14.6903C19.7865 14.6903 19.7865 16.6158 19.7865 18.1903V24.6658Z" fill="#A8A8A8"/>
</g>
</g>
</g>
</svg>
